<svg xmlns="http://www.w3.org/2000/svg" viewBox="-11.8 -166.6 1029.0 323.6" role="img" aria-label="superpredicto">
  <title>superpredicto</title>
  <path d="M38.03 1.60Q30.23 1.60 21.16 0.60Q12.09-0.40 6.22-1.80L6.22-1.80L11.66-25.40Q24.59-24.20 31.99-24.20L31.99-24.20Q38.59-24.20 41.26-24.50Q43.93-24.80 45.35-26.20Q46.77-27.60 47.51-30.80L47.51-30.80Q48.48-35 47.63-36.10Q46.79-37.20 42.02-38.20L42.02-38.20L26.22-40.80Q19.14-42.20 17.80-49.40Q16.47-56.60 20.07-72.20L20.07-72.20Q24.04-89.40 34.68-96.50Q45.32-103.60 62.52-103.60L62.52-103.60Q69.72-103.60 77.71-102.70Q85.70-101.80 90.38-100.40L90.38-100.40L84.84-76.40Q71.76-77.80 65.36-77.80L65.36-77.80Q59.76-77.80 57.27-77.40Q54.78-77 53.80-75.80Q52.82-74.60 52.27-72.20L52.27-72.20Q51.53-69 51.58-67.90Q51.62-66.80 52.51-66.30Q53.39-65.80 56.45-65.20L56.45-65.20L69.10-62.80Q74.31-62 77.38-59.70Q80.45-57.40 81.37-51Q82.30-44.60 79.57-32.80L79.57-32.80Q76.39-19 70.65-11.50Q64.92-4 56.98-1.20Q49.03 1.60 38.03 1.60L38.03 1.60ZM124.90 0L126.73-11.40L124.93-11.40Q116.53 1.60 100.73 1.60L100.73 1.60Q91.53 1.60 87.71-2.20Q83.89-6 84.02-13.50Q84.15-21 87.24-34.40L87.24-34.40L102.85-102L136.25-102L123.69-47.60Q121.10-36.40 120.53-32.60Q119.95-28.80 120.72-27.80Q121.49-26.80 124.49-26.80L124.49-26.80Q127.49-26.80 128.76-28Q130.04-29.20 131.21-33.40Q132.38-37.60 135.34-50.40L135.34-50.40L147.25-102L180.65-102L157.10 0L124.90 0ZM159.41 39.80L192.15-102L224.35-102L222.56-90.80L224.56-90.80Q228.33-97.60 234.33-100.60Q240.32-103.60 246.92-103.60L246.92-103.60Q256.12-103.60 260.28-99.10Q264.44-94.60 264.25-83.40Q264.07-72.20 259.22-51.20L259.22-51.20Q254.51-30.80 249.70-19.50Q244.89-8.20 238.46-3.30Q232.03 1.60 222.63 1.60L222.63 1.60Q215.63 1.60 211.50-1.30Q207.37-4.20 206.20-10.40L206.20-10.40L204.40-10.40L192.81 39.80L159.41 39.80ZM214.14-26.60Q217.54-26.60 218.80-27.70Q220.05-28.80 221.36-33.20Q222.68-37.60 225.77-51L225.77-51Q228.87-64.40 229.58-68.80Q230.30-73.20 229.55-74.30Q228.81-75.40 225.41-75.40L225.41-75.40Q222.81-75.40 221.40-74.50Q219.99-73.60 218.65-70.40L218.65-70.40Q217.51-67.20 213.77-51L213.77-51Q209.99-34.60 209.83-32.20L209.83-32.20Q209.60-28.60 210.57-27.60Q211.54-26.60 214.14-26.60L214.14-26.60ZM342.63-50.80L340.73-42.60L297.73-42.60Q295.56-33.20 295.60-29.90Q295.64-26.60 298.51-25.60Q301.38-24.60 309.78-24.60L309.78-24.60Q317.78-24.60 334.36-25.40L334.36-25.40L328.87-1.60Q323.15-0.20 313.84 0.70Q304.53 1.60 295.73 1.60L295.73 1.60Q276.33 1.60 268.88-3.80Q261.42-9.20 261.60-19.50Q261.78-29.80 266.63-50.80L266.63-50.80Q271.43-71.60 276.05-82.10Q280.68-92.60 290.25-98.10Q299.82-103.60 317.82-103.60L317.82-103.60Q335.82-103.60 342.46-98.60Q349.11-93.60 348.52-83.70Q347.94-73.80 342.63-50.80L342.63-50.80ZM312.00-78.40Q309.20-78.40 307.79-77.50Q306.38-76.60 305.18-73.10Q303.97-69.60 301.98-61L301.98-61L313.98-61Q316.06-70 316.52-73.30Q316.98-76.60 316.09-77.50Q315.20-78.40 312.00-78.40L312.00-78.40ZM340.60 0L364.15-102L396.35-102L393.41-85.80L395.21-85.80Q400.92-95.80 406.92-99.70Q412.92-103.60 422.32-103.60L422.32-103.60L414.70-70.60Q405.70-70.60 400.16-68.70Q394.62-66.80 390.68-61Q386.74-55.20 384.16-44L384.16-44L374 0L340.60 0Z" fill="#FFFFFF"></path>
  <path d="M396.11 39.80L428.85-102L461.05-102L459.26-90.80L461.26-90.80Q465.03-97.60 471.03-100.60Q477.02-103.60 483.62-103.60L483.62-103.60Q492.82-103.60 496.98-99.10Q501.14-94.60 500.95-83.40Q500.77-72.20 495.92-51.20L495.92-51.20Q491.21-30.80 486.40-19.50Q481.59-8.20 475.16-3.30Q468.73 1.60 459.33 1.60L459.33 1.60Q452.33 1.60 448.20-1.30Q444.07-4.20 442.90-10.40L442.90-10.40L441.10-10.40L429.51 39.80L396.11 39.80ZM450.84-26.60Q454.24-26.60 455.50-27.70Q456.75-28.80 458.06-33.20Q459.38-37.60 462.47-51L462.47-51Q465.57-64.40 466.28-68.80Q467.00-73.20 466.25-74.30Q465.51-75.40 462.11-75.40L462.11-75.40Q459.51-75.40 458.10-74.50Q456.69-73.60 455.35-70.40L455.35-70.40Q454.21-67.20 450.47-51L450.47-51Q446.69-34.60 446.53-32.20L446.53-32.20Q446.30-28.60 447.27-27.60Q448.24-26.60 450.84-26.60L450.84-26.60ZM493.60 0L517.15-102L549.35-102L546.41-85.80L548.21-85.80Q553.92-95.80 559.92-99.70Q565.92-103.60 575.32-103.60L575.32-103.60L567.70-70.60Q558.70-70.60 553.16-68.70Q547.62-66.80 543.68-61Q539.74-55.20 537.16-44L537.16-44L527 0L493.60 0ZM644.03-50.80L642.13-42.60L599.13-42.60Q596.96-33.20 597.00-29.90Q597.04-26.60 599.91-25.60Q602.78-24.60 611.18-24.60L611.18-24.60Q619.18-24.60 635.76-25.40L635.76-25.40L630.27-1.60Q624.55-0.20 615.24 0.70Q605.93 1.60 597.13 1.60L597.13 1.60Q577.73 1.60 570.28-3.80Q562.82-9.20 563.00-19.50Q563.18-29.80 568.03-50.80L568.03-50.80Q572.83-71.60 577.45-82.10Q582.08-92.60 591.65-98.10Q601.22-103.60 619.22-103.60L619.22-103.60Q637.22-103.60 643.86-98.60Q650.51-93.60 649.92-83.70Q649.34-73.80 644.03-50.80L644.03-50.80ZM613.40-78.40Q610.60-78.40 609.19-77.50Q607.78-76.60 606.58-73.10Q605.37-69.60 603.38-61L603.38-61L615.38-61Q617.46-70 617.92-73.30Q618.38-76.60 617.49-77.50Q616.60-78.40 613.40-78.40L613.40-78.40ZM664.03 1.60Q654.83 1.60 650.65-2.80Q646.46-7.20 646.67-18.50Q646.88-29.80 651.73-50.80L651.73-50.80Q656.44-71.20 661.25-82.50Q666.06-93.80 672.39-98.70Q678.72-103.60 688.12-103.60L688.12-103.60Q695.32-103.60 699.47-100.80Q703.63-98 704.75-91.60L704.75-91.60L706.55-91.60L719.71-148.60L753.11-148.60L718.80 0L686.60 0L688.39-11.20L686.39-11.20Q682.37-4.20 676.50-1.30Q670.63 1.60 664.03 1.60L664.03 1.60ZM685.54-26.60Q688.54-26.60 689.87-27.60Q691.20-28.60 692.43-32.20L692.43-32.20Q693.90-36.80 697.17-51L697.17-51Q700.50-65.40 700.88-68.80L700.88-68.80Q701.50-73.20 700.65-74.30Q699.81-75.40 696.81-75.40L696.81-75.40Q693.41-75.40 692.05-74.30Q690.70-73.20 689.36-68.70Q688.02-64.20 684.97-51L684.97-51Q681.93-37.80 681.19-33.30Q680.45-28.80 681.30-27.70Q682.14-26.60 685.54-26.60L685.54-26.60ZM791.79-120.80L758.19-120.80L764.61-148.60L798.21-148.60L791.79-120.80ZM763.90 0L730.30 0L753.85-102L787.45-102L763.90 0ZM833.77-1.60Q820.83 1.60 808.83 1.60L808.83 1.60Q793.03 1.60 786.67-4.20Q780.31-10 780.50-20.80Q780.70-31.60 785.17-51L785.17-51Q789.70-70.60 794.62-81.50Q799.53-92.40 808.53-98Q817.52-103.60 833.12-103.60L833.12-103.60Q846.12-103.60 856.27-100.80L856.27-100.80L850.68-76.60Q842.87-77.40 837.07-77.40L837.07-77.40Q831.07-77.40 828.42-75.90Q825.78-74.40 823.78-69.20Q821.78-64 818.77-51L818.77-51Q815.73-37.80 815.25-32.70Q814.77-27.60 816.83-26.10Q818.88-24.60 824.88-24.60L824.88-24.60Q829.88-24.60 839.26-25.40L839.26-25.40L833.77-1.60ZM883.10 0L849.30 0L866.80-75.80L855.20-75.80L861.25-102L872.85-102L879.68-131.60L913.48-131.60L906.65-102L922.25-102L916.20-75.80L900.60-75.80L883.10 0ZM942.43 1.60Q924.03 1.60 916.87-2.90Q909.71-7.40 909.79-17.70Q909.86-28 915.17-51L915.17-51Q920.48-74 925.16-84.30Q929.84-94.60 939.08-99.10Q948.32-103.60 966.72-103.60L966.72-103.60Q985.12-103.60 992.18-99.10Q999.24-94.60 999.24-84.20Q999.24-73.80 993.97-51L993.97-51Q988.71-28.20 983.91-17.80Q979.11-7.40 969.97-2.90Q960.83 1.60 942.43 1.60L942.43 1.60ZM948.48-24.60Q951.68-24.60 953.10-26Q954.53-27.40 955.96-32.30Q957.39-37.20 960.57-51L960.57-51Q963.76-64.80 964.59-69.70Q965.42-74.60 964.65-76Q963.87-77.40 960.67-77.40L960.67-77.40Q957.47-77.40 955.95-76Q954.42-74.60 952.99-69.70Q951.56-64.80 948.37-51L948.37-51Q945.19-37.20 944.36-32.30Q943.53-27.40 944.40-26Q945.28-24.60 948.48-24.60L948.48-24.60Z" fill="#1DEF93"></path>
  <path d="M 6.2 99.8 L 559.2 99.8 L 568.2 67.8 L 586.2 131.8 L 595.2 99.8 L 999.2 99.8" fill="none" stroke="#1DEF93" stroke-width="14.4" stroke-linecap="butt" stroke-linejoin="miter" stroke-miterlimit="2"></path>
</svg>